<svg xmlns="http://www.w3.org/2000/svg" width="178" height="44" viewBox="0 0 178 44" fill="none"><path d="M0 0.389404H2.45035C9.19239 0.389404 14.6655 5.767 14.6655 12.3914V43.6183H12.264C5.49547 43.6183 0 38.2187 0 31.5682V0.389404Z" fill="#47DDFE"></path><path d="M25.6646 43.6182C29.7143 43.6182 32.9973 40.3925 32.9973 36.4134C32.9973 32.4343 29.7143 29.2086 25.6646 29.2086C21.6148 29.2086 18.3318 32.4343 18.3318 36.4134C18.3318 40.3925 21.6148 43.6182 25.6646 43.6182Z" fill="#A2F819"></path><path d="M20.165 25.6062C27.2521 25.6062 32.9973 19.9613 32.9973 12.9978C32.9973 6.03439 27.2521 0.389404 20.165 0.389404C13.0779 0.389404 7.3327 6.03439 7.3327 12.9978C7.3327 19.9613 13.0779 25.6062 20.165 25.6062Z" fill="#3E04B3"></path><path d="M14.6654 12.3915V24.3935C10.331 22.3681 7.3327 18.0272 7.3327 12.9979C7.3327 9.47151 8.80536 6.28338 11.1803 3.99585C13.3374 6.1613 14.6654 9.12327 14.6654 12.3915Z" fill="#406FD6"></path><path d="M44.0127 7.60815H50.5755V30.2413H62.7111V36.4074H44.0106V7.60815H44.0127Z" fill="white"></path><path d="M67.2126 7.60815H73.7754V36.4054H67.2126V7.60815Z" fill="white"></path><path d="M78.7291 22.0079C78.7291 13.8144 85.4996 7.12195 93.8793 7.12195C102.259 7.12195 109.03 13.8144 109.03 22.0079C109.03 30.2014 102.218 36.8938 93.8793 36.8938C85.5404 36.8938 78.7291 30.2014 78.7291 22.0079ZM102.383 22.0079C102.383 17.3428 98.6272 13.3681 93.8793 13.3681C89.1314 13.3681 85.3346 17.3428 85.3346 22.0079C85.3346 26.673 89.0906 30.6477 93.8793 30.6477C98.668 30.6477 102.383 26.673 102.383 22.0079Z" fill="white"></path><path d="M134.829 36.4074L120.546 18.6015V36.4074H113.983V7.60815H119.64L133.881 25.374V7.60815H140.487V36.4054H134.831L134.829 36.4074Z" fill="white"></path><path d="M145.312 27.1593H151.875C152.289 29.5929 154.311 30.9318 156.87 30.9318C159.057 30.9318 160.668 29.9992 160.668 28.3761C160.668 27.0372 159.636 25.9825 156.829 25.252L153.981 24.5215C149.317 23.3047 146.097 20.3847 146.056 15.8817C146.015 10.4461 150.06 7.11987 156.128 7.11987C162.526 7.11987 166.53 11.7029 166.695 16.1239H160.173C159.513 13.8524 157.696 13.0819 156.128 13.0819C154.23 13.0819 152.702 13.8924 152.661 15.4334C152.621 17.0145 153.94 17.9491 156.212 18.5155L159.556 19.3681C164.345 20.5849 167.317 23.6669 167.317 28.1699C167.317 33.0772 163.188 36.8898 156.874 36.8898C149.608 36.8898 145.563 31.9825 145.314 27.1553L145.312 27.1593Z" fill="white"></path><path d="M171.932 11.1925V8.3606H170.997V7.59009H173.702V8.3606H172.757V11.1925H171.93H171.932ZM176.102 10.428L175.028 8.97101V11.1925H174.207V7.59009H174.957L176.104 9.14313L177.25 7.59009H178V11.1925H177.173V8.97101L176.104 10.428H176.102Z" fill="white"></path></svg>